# xmcd CD database file
#
# Track frame offsets:
#	150
#	17730
#	32917
#	47700
#	61994
#	87358
#	109952
#	123689
#	134685
#	157001
#	172177
#	191354
#	211785
#
# Disc length: 3080 seconds
#
# Revision: 0
# Processed by: cddbd v1.5.2PL0 Copyright (c) Steve Scherf et al.
# Submitted via: CDex 1.51
#
DISCID=be0c060d
DTITLE=Mellow Melange - Ange
DYEAR=1997
DGENRE=Jazz
TTITLE0=Teach This Crasy World Your way
TTITLE1=Sentiments Perdus
TTITLE2=The Black Icon
TTITLE3=Cleanidad
TTITLE4=I Wish I Were In Rome
TTITLE5=Miss Wittgenstein
TTITLE6=Anorexia Nervosa
TTITLE7=I'm A Girl
TTITLE8=The Girl At The End Of The Road
TTITLE9=Through The Streets Of Amsterdam
TTITLE10=Hey, My Love
TTITLE11=Blue
TTITLE12=She Chewed Her Gum
EXTD=YEAR: 1997
EXTT0=
EXTT1=
EXTT2=
EXTT3=
EXTT4=
EXTT5=
EXTT6=
EXTT7=
EXTT8=
EXTT9=
EXTT10=
EXTT11=
EXTT12=
PLAYORDER=
